<svg width="50" height="50" viewBox="0 0 50 50" fill="none" xmlns="http://www.w3.org/2000/svg">
<rect width="50" height="50" fill="#1B1B1B"/>
<g clip-path="url(#clip0_136_1204)">
<rect width="1440" height="1024" transform="translate(-369 -88)" fill="#F7F7F7"/>
<rect x="-24" y="-88" width="750" height="1024" fill="#F2F2F2"/>
<g clip-path="url(#clip1_136_1204)">
<path d="M25 50C38.8071 50 50 38.8071 50 25C50 11.1929 38.8071 0 25 0C11.1929 0 0 11.1929 0 25C0 38.8071 11.1929 50 25 50Z" fill="#A9EAE8"/>
<path d="M27.3164 48.7217C39.1385 48.7217 48.7221 39.138 48.7221 27.3159C48.7221 15.4938 39.1385 5.91016 27.3164 5.91016C15.4943 5.91016 5.91064 15.4938 5.91064 27.3159C5.91064 39.138 15.4943 48.7217 27.3164 48.7217Z" fill="#7DD1D1"/>
<path d="M50 23.4026C49.6006 16.4537 46.3259 10.3035 41.3738 6.07031C37.3802 7.34827 34.4249 11.0224 34.4249 15.4952C34.4249 15.7348 34.4249 15.8946 34.4249 16.1342C34.4249 16.1342 34.4249 16.1342 34.345 16.1342C33.147 14.4569 31.1502 13.3387 28.8339 13.3387C26.3578 13.3387 24.2013 14.6965 23.0032 16.6933C22.6038 16.6134 22.2045 16.5336 21.7252 16.5336C21.3259 16.5336 20.9265 16.5336 20.607 16.6134C19.8083 15.655 18.6102 15.0959 17.2524 15.0959C16.2141 15.0959 15.1757 15.4952 14.4569 16.1342C13.9776 15.9745 13.5783 15.8946 13.099 15.8946C12.4601 14.2173 11.262 12.7796 9.82428 11.8211C9.82428 11.7412 9.82428 11.6614 9.82428 11.5815C9.82428 9.66456 9.1853 7.90737 8.22684 6.46967C3.11502 11.0224 0 17.6518 0 25C0 25.3994 0 25.7987 0 26.1981C1.4377 27.1566 3.11502 27.7956 4.95208 27.7956C5.91054 27.7956 6.86901 27.6358 7.7476 27.3163C8.94569 28.5943 10.7029 29.393 12.6198 29.393C14.2173 29.393 15.655 28.8339 16.853 27.9553C18.131 29.3131 19.8882 30.1118 21.8051 30.1118C24.2013 30.1118 26.278 28.8339 27.476 26.9968C28.754 28.5144 30.5911 29.5527 32.7476 29.5527C36.0224 29.5527 38.738 27.2364 39.377 24.1214C40.8147 24.9202 42.4121 25.3994 44.1693 25.3994C46.4058 25.2396 48.3227 24.6007 50 23.4026Z" fill="#EAE9DA"/>
<path d="M50 23.4026C49.6006 16.4537 46.3259 10.3035 41.3738 6.07031C37.3802 7.34827 34.4249 11.0224 34.4249 15.4952C34.4249 15.7348 34.4249 15.8946 34.4249 16.1342C34.4249 16.1342 34.4249 16.1342 34.345 16.1342C33.147 14.4569 31.1502 13.3387 28.8339 13.3387C26.3578 13.3387 24.2013 14.6965 23.0032 16.6933C22.6038 16.6134 22.2045 16.5336 21.7252 16.5336C21.3259 16.5336 20.9265 16.5336 20.607 16.6134C19.8083 15.655 18.6102 15.0959 17.2524 15.0959C16.2141 15.0959 15.1757 15.4952 14.4569 16.1342C13.9776 15.9745 13.5783 15.8946 13.099 15.8946C12.4601 14.2173 11.262 12.7796 9.82428 11.8211C9.82428 11.7412 9.82428 11.6614 9.82428 11.5815C9.82428 9.66456 9.1853 7.90737 8.22684 6.46967C3.11502 11.0224 0 17.6518 0 25C0 25.3994 0 25.7987 0 26.1981C1.4377 27.1566 3.11502 27.7956 4.95208 27.7956C5.91054 27.7956 6.86901 27.6358 7.7476 27.3163C8.94569 28.5943 10.7029 29.393 12.6198 29.393C14.2173 29.393 15.655 28.8339 16.853 27.9553C18.131 29.3131 19.8882 30.1118 21.8051 30.1118C24.2013 30.1118 26.278 28.8339 27.476 26.9968C28.754 28.5144 30.5911 29.5527 32.7476 29.5527C36.0224 29.5527 38.738 27.2364 39.377 24.1214C40.8147 24.9202 42.4121 25.3994 44.1693 25.3994C46.4058 25.2396 48.3227 24.6007 50 23.4026Z" fill="#EAE9DA"/>
<path d="M49.8405 22.2041C49.9204 23.0827 50.0002 24.0412 50.0002 24.9996C50.0002 38.8175 38.8181 49.9996 25.0002 49.9996C15.176 49.9996 6.62963 44.3287 2.55615 36.022C11.2622 27.9549 29.1536 22.284 49.8405 22.2041Z" fill="#493322"/>
<path d="M50.0002 25C50.0002 38.8179 38.8181 50 25.0002 50C15.176 50 6.62963 44.3291 2.55615 36.0224" fill="#3A2819"/>
<path d="M0.159744 22.2041C0.0798722 23.0827 0 24.0412 0 24.9996C0 38.8175 11.1821 49.9996 25 49.9996C34.8243 49.9996 43.3706 44.3287 47.4441 36.022C38.738 27.9549 20.8466 22.284 0.159744 22.2041Z" fill="#34B515"/>
<path d="M0.159744 22.2041C0.0798722 23.0827 0 24.0412 0 24.9996C0 38.8175 11.1821 49.9996 25 49.9996C34.8243 49.9996 43.3706 44.3287 47.4441 36.022C38.738 27.9549 20.8466 22.284 0.159744 22.2041Z" fill="#1D7001"/>
<path d="M25 50.0004C30.6709 50.0004 35.9425 48.0835 40.0958 44.8886C32.7476 35.7831 18.131 27.1569 0.159744 22.125C0.0798722 23.0036 0 23.9621 0 24.9205C0 38.8183 11.1821 50.0004 25 50.0004Z" fill="#239B02"/>
<path d="M25 49.9996C26.7572 49.9996 28.5144 49.8399 30.2716 49.4405C24.4409 40.1753 13.8179 30.1913 0.159744 22.2041C0.0798722 23.0827 0 24.0412 0 24.9996C0 38.8175 11.1821 49.9996 25 49.9996Z" fill="#1D7001"/>
<path d="M0.319489 22.2041C0.239617 22.284 0.159744 22.284 0.159744 22.3638C0.0798722 23.2424 0 24.121 0 24.9996C0 36.2616 7.42812 45.7664 17.6518 48.8814C14.0575 40.3351 8.14697 30.99 0.319489 22.2041Z" fill="#239B02"/>
<path d="M44.9682 16.2148H33.7861V24.2021H44.9682V16.2148Z" fill="#493322"/>
<path d="M46.4057 17.812H32.1885L33.7859 13.8184H44.8083L46.4057 17.812Z" fill="#493322"/>
<path d="M39.3771 18.6104H36.981V21.0065H39.3771V18.6104Z" fill="#EAE9DA"/>
<path d="M18.3704 19.089C19.1691 13.8174 22.364 8.06661 25.9582 6.70878V6.62891C28.9934 8.86533 30.4311 15.335 29.7122 20.6065C28.9135 25.8781 26.1978 28.434 22.6036 29.712V29.7918V29.712C19.5685 27.5554 17.6515 24.3605 18.3704 19.089Z" fill="#239B02"/>
<path d="M22.6837 29.8717C22.6039 29.8717 22.6039 29.8717 22.6837 29.8717C19.5687 27.5554 17.6518 24.3605 18.3706 19.089C19.1694 13.8174 22.3642 8.06661 25.9585 6.70878V6.62891" fill="#34B515"/>
<path d="M16.3739 26.9165C14.4569 24.2807 13.3387 20.3669 14.2972 18.2903C16.6135 17.9708 20.048 20.1273 21.9649 22.7631C23.8819 25.3989 23.802 27.6353 22.8435 29.7919C20.5272 30.1114 18.2908 29.5522 16.3739 26.9165Z" fill="#239B02"/>
<path d="M22.8433 29.7127C22.8433 29.7926 22.8433 29.7926 22.8433 29.7127C20.527 30.1121 18.2906 29.553 16.2938 26.9172C14.3769 24.2814 13.2587 20.3677 14.2171 18.291" fill="#34B515"/>
</g>
</g>
<defs>
<clipPath id="clip0_136_1204">
<rect width="1440" height="1024" fill="white" transform="translate(-369 -88)"/>
</clipPath>
<clipPath id="clip1_136_1204">
<rect width="50" height="50" fill="white"/>
</clipPath>
</defs>
</svg>
