<svg width="203" height="203" viewBox="0 0 203 203" fill="none" xmlns="http://www.w3.org/2000/svg">
<rect width="203" height="203" fill="#1B1B1B"/>
<rect width="411" height="926" transform="translate(-104 -226)" fill="#F7F7F7"/>
<g clip-path="url(#clip0_136_1204)">
<path d="M101.5 203C157.557 203 203 157.557 203 101.5C203 45.4431 157.557 0 101.5 0C45.4431 0 0 45.4431 0 101.5C0 157.557 45.4431 203 101.5 203Z" fill="#A9EAE8"/>
<path d="M110.904 197.811C158.902 197.811 197.811 158.902 197.811 110.904C197.811 62.9063 158.902 23.9966 110.904 23.9966C62.9063 23.9966 23.9966 62.9063 23.9966 110.904C23.9966 158.902 62.9063 197.811 110.904 197.811Z" fill="#7DD1D1"/>
<path d="M203 95.0145C201.379 66.8021 188.083 41.8324 167.978 24.6455C151.764 29.834 139.765 44.7509 139.765 62.9107C139.765 63.8835 139.765 64.5321 139.765 65.5049C139.765 65.5049 139.765 65.5049 139.441 65.5049C134.577 58.695 126.47 54.1551 117.065 54.1551C107.013 54.1551 98.2572 59.6679 93.393 67.7749C91.7716 67.4506 90.1502 67.1263 88.2045 67.1263C86.5831 67.1263 84.9617 67.1263 83.6645 67.4506C80.4217 63.5592 75.5575 61.2893 70.0447 61.2893C65.8291 61.2893 61.6134 62.9107 58.6949 65.5049C56.7492 64.8564 55.1278 64.5321 53.1821 64.5321C50.5879 57.7222 45.7236 51.8851 39.8866 47.9938C39.8866 47.6695 39.8866 47.3452 39.8866 47.0209C39.8866 39.2382 37.2923 32.104 33.401 26.2669C12.647 44.7509 0 71.6663 0 101.5C0 103.122 0 104.743 0 106.364C5.83706 110.256 12.647 112.85 20.1054 112.85C23.9968 112.85 27.8882 112.201 31.4553 110.904C36.3195 116.093 43.4537 119.336 51.2364 119.336C57.722 119.336 63.5591 117.066 68.4233 113.499C73.6118 119.011 80.746 122.254 88.5288 122.254C98.2572 122.254 106.689 117.066 111.553 109.607C116.741 115.769 124.2 119.984 132.955 119.984C146.251 119.984 157.276 110.58 159.871 97.933C165.708 101.176 172.193 103.122 179.327 103.122C188.407 102.473 196.19 99.8787 203 95.0145Z" fill="#EAE9DA"/>
<path d="M203 95.0145C201.379 66.8021 188.083 41.8324 167.978 24.6455C151.764 29.834 139.765 44.7509 139.765 62.9107C139.765 63.8835 139.765 64.5321 139.765 65.5049C139.765 65.5049 139.765 65.5049 139.441 65.5049C134.577 58.695 126.47 54.1551 117.065 54.1551C107.013 54.1551 98.2572 59.6679 93.393 67.7749C91.7716 67.4506 90.1502 67.1263 88.2045 67.1263C86.5831 67.1263 84.9617 67.1263 83.6645 67.4506C80.4217 63.5592 75.5575 61.2893 70.0447 61.2893C65.8291 61.2893 61.6134 62.9107 58.6949 65.5049C56.7492 64.8564 55.1278 64.5321 53.1821 64.5321C50.5879 57.7222 45.7236 51.8851 39.8866 47.9938C39.8866 47.6695 39.8866 47.3452 39.8866 47.0209C39.8866 39.2382 37.2923 32.104 33.401 26.2669C12.647 44.7509 0 71.6663 0 101.5C0 103.122 0 104.743 0 106.364C5.83706 110.256 12.647 112.85 20.1054 112.85C23.9968 112.85 27.8882 112.201 31.4553 110.904C36.3195 116.093 43.4537 119.336 51.2364 119.336C57.722 119.336 63.5591 117.066 68.4233 113.499C73.6118 119.011 80.746 122.254 88.5288 122.254C98.2572 122.254 106.689 117.066 111.553 109.607C116.741 115.769 124.2 119.984 132.955 119.984C146.251 119.984 157.276 110.58 159.871 97.933C165.708 101.176 172.193 103.122 179.327 103.122C188.407 102.473 196.19 99.8787 203 95.0145Z" fill="#EAE9DA"/>
<path d="M202.351 90.1504C202.676 93.7175 203 97.6089 203 101.5C203 157.601 157.601 203 101.5 203C61.6134 203 26.9153 179.976 10.377 146.251C45.7236 113.499 118.363 90.4747 202.351 90.1504Z" fill="#493322"/>
<path d="M203 101.5C203 157.601 157.601 203 101.5 203C61.6134 203 26.9153 179.976 10.377 146.251" fill="#3A2819"/>
<path d="M0.648562 90.1504C0.324281 93.7175 0 97.6089 0 101.5C0 157.601 45.3994 203 101.5 203C141.387 203 176.085 179.976 192.623 146.251C157.276 113.499 84.6374 90.4747 0.648562 90.1504Z" fill="#34B515"/>
<path d="M0.648562 90.1504C0.324281 93.7175 0 97.6089 0 101.5C0 157.601 45.3994 203 101.5 203C141.387 203 176.085 179.976 192.623 146.251C157.276 113.499 84.6374 90.4747 0.648562 90.1504Z" fill="#1D7001"/>
<path d="M101.5 203C124.524 203 145.927 195.217 162.789 182.246C132.955 145.278 73.6118 110.255 0.648562 89.8257C0.324281 93.3928 0 97.2842 0 101.176C0 157.6 45.3994 203 101.5 203Z" fill="#239B02"/>
<path d="M101.5 203C108.634 203 115.768 202.352 122.903 200.73C99.23 163.114 56.1006 122.579 0.648562 90.1504C0.324281 93.7175 0 97.6089 0 101.5C0 157.601 45.3994 203 101.5 203Z" fill="#1D7001"/>
<path d="M1.29712 90.1504C0.972844 90.4747 0.648562 90.4747 0.648562 90.799C0.324281 94.366 0 97.9331 0 101.5C0 147.224 30.1581 185.813 71.6661 198.46C57.0735 163.762 33.0767 125.821 1.29712 90.1504Z" fill="#239B02"/>
<path d="M182.571 65.8291H137.171V98.2572H182.571V65.8291Z" fill="#493322"/>
<path d="M188.408 72.3146H130.686L137.171 56.1006H181.922L188.408 72.3146Z" fill="#493322"/>
<path d="M159.871 75.5576H150.142V85.2861H159.871V75.5576Z" fill="#EAE9DA"/>
<path d="M74.5848 77.5034C77.8276 56.1008 90.7988 32.7526 105.391 27.2398V26.9155C117.714 35.9954 123.551 62.2622 120.633 83.6647C117.39 105.067 106.364 115.444 91.7717 120.633V120.957V120.633C79.449 111.877 71.6663 98.9059 74.5848 77.5034Z" fill="#239B02"/>
<path d="M92.096 121.281C91.7717 121.281 91.7717 121.281 92.096 121.281C79.449 111.877 71.6663 98.9059 74.5848 77.5034C77.8276 56.1008 90.7989 32.7526 105.392 27.2398V26.9155" fill="#34B515"/>
<path d="M66.4775 109.283C58.6947 98.5817 54.1548 82.6919 58.0462 74.2606C67.4503 72.9635 81.3944 81.7191 89.1772 92.4204C96.9599 103.122 96.6356 112.202 92.7443 120.957C83.3401 122.254 74.2602 119.984 66.4775 109.283Z" fill="#239B02"/>
<path d="M92.7443 120.632C92.7443 120.957 92.7443 120.957 92.7443 120.632C83.3402 122.254 74.2603 119.984 66.1533 109.283C58.3705 98.5813 53.8306 82.6916 57.722 74.2603" fill="#34B515"/>
</g>
<defs>
<clipPath id="clip0_136_1204">
<rect width="203" height="203" fill="white"/>
</clipPath>
</defs>
</svg>
