<svg width="20" height="20" viewBox="0 0 20 20" fill="none" xmlns="http://www.w3.org/2000/svg">
<path d="M0.000488281 5V0H5.00049V2H2.00049V5H0.000488281ZM0.000488281 20V15H2.00049V18H5.00049V20H0.000488281ZM15.0005 20V18H18.0005V15H20.0005V20H15.0005ZM18.0005 5V2H15.0005V0H20.0005V5H18.0005ZM15.5005 15.5H17.0005V17H15.5005V15.5ZM15.5005 12.5H17.0005V14H15.5005V12.5ZM14.0005 14H15.5005V15.5H14.0005V14ZM12.5005 15.5H14.0005V17H12.5005V15.5ZM11.0005 14H12.5005V15.5H11.0005V14ZM14.0005 11H15.5005V12.5H14.0005V11ZM12.5005 12.5H14.0005V14H12.5005V12.5ZM11.0005 11H12.5005V12.5H11.0005V11ZM17.0005 3V9H11.0005V3H17.0005ZM9.00049 11V17H3.00049V11H9.00049ZM9.00049 3V9H3.00049V3H9.00049ZM7.50049 15.5V12.5H4.50049V15.5H7.50049ZM7.50049 7.5V4.5H4.50049V7.5H7.50049ZM15.5005 7.5V4.5H12.5005V7.5H15.5005Z" fill="#5F676C"/>
</svg>
