<svg width="203" height="203" viewBox="0 0 203 203" fill="none" xmlns="http://www.w3.org/2000/svg">
<rect width="203" height="203" fill="#1B1B1B"/>
<rect width="411" height="926" transform="translate(-104 -226)" fill="#F7F7F7"/>
<g clip-path="url(#clip0_136_1204)">
<path d="M101.5 203C157.557 203 203 157.557 203 101.5C203 45.4431 157.557 0 101.5 0C45.4431 0 0 45.4431 0 101.5C0 157.557 45.4431 203 101.5 203Z" fill="#DFEFD9"/>
<path fill-rule="evenodd" clip-rule="evenodd" d="M120.531 101.147C120.531 112.06 111.804 120.531 101.5 120.531C91.1965 120.531 82.4688 112.06 82.4688 101.147C82.4688 93.4257 86.8371 86.9271 93.0419 83.7857V50.75C69.039 54.8049 50.75 75.8249 50.75 101.147C50.75 129.37 73.4714 152.25 101.5 152.25C129.529 152.25 152.25 129.37 152.25 101.147C152.25 75.8249 133.961 54.8049 109.958 50.75V83.7857C116.163 86.9271 120.531 93.4257 120.531 101.147Z" fill="#00D600"/>
</g>
<defs>
<clipPath id="clip0_136_1204">
<rect width="203" height="203" fill="white"/>
</clipPath>
</defs>
</svg>
